<svg xmlns="http://www.w3.org/2000/svg" version="1.1" xmlns:xlink="http://www.w3.org/1999/xlink" xmlns:svgjs="http://svgjs.com/svgjs" width="1440" height="560" preserveAspectRatio="none" viewBox="0 0 1440 560">
    <g mask="url(&quot;#SvgjsMask3371&quot;)" fill="none">
        <rect width="1440" height="560" x="0" y="0" fill="rgba(245, 245, 245, 1)"></rect>
        <use xlink:href="#SvgjsG3380" transform="translate(0, 0)" fill="rgba(224, 224, 224, 1)"></use>
        <use xlink:href="#SvgjsG3380" transform="translate(0, 495.00000000000006)" fill="rgba(224, 224, 224, 1)"></use>
        <use xlink:href="#SvgjsG3380" transform="translate(495.00000000000006, 0)" fill="rgba(224, 224, 224, 1)"></use>
        <use xlink:href="#SvgjsG3380" transform="translate(495.00000000000006, 495.00000000000006)" fill="rgba(224, 224, 224, 1)"></use>
        <use xlink:href="#SvgjsG3380" transform="translate(990.0000000000001, 0)" fill="rgba(224, 224, 224, 1)"></use>
        <use xlink:href="#SvgjsG3380" transform="translate(990.0000000000001, 495.00000000000006)" fill="rgba(224, 224, 224, 1)"></use>
    </g>
    <defs>
        <mask id="SvgjsMask3371">
            <rect width="1440" height="560" fill="#ffffff"></rect>
        </mask>
        <g id="SvgjsG3374">
            <path d="M5.25 12.34L3.26 11.99l1-5.65 1.98 0.34-0.99 5.66z m5.8-4.81l1.98 0.35-1 5.66L10.05 13.19l1-5.66z m-3.51-0.62L9.75 7.3l-1 5.66L6.54 12.57l1-5.66z m-6.19 4.74L0.28 12.88l14.31 2.5-0.54-1.49-0.72-0.13 1-5.65 1.4 0.25L16.07 6.39 15.02 6.2 9.46 3.15l-6.38 0.94-1.08-0.19-0.35 1.97 1.31 0.23-0.99 5.66-0.62-0.11z" fill-rule="evenodd"></path>
        </g>
        <g id="SvgjsG3377">
            <path d="M0.41 12.56l13.8 2.44L16.06 4.52 2.26 2.09l-1.85 10.47z m13.79-7.36L9.02 8.82c-0.53 0.37-1.33 0.22-1.71-0.32l-3.6-5.15 10.48 1.85z m-11.26-1.28l2.94 4.21-4.22 2.96 1.28-7.17z m-0.74 7.96l4.22-2.95 0.12 0.18c0.7 0.95 2.05 1.19 3.01 0.53l0.18-0.13 2.97 4.23-10.5-1.86z m11.3 1.29L10.55 8.96 14.76 6.01 13.5 13.17z" fill-rule="evenodd"></path>
        </g>
        <g id="SvgjsG3373">
            <path d="M2.39 11.26L2.96 8.06c0.49-2.79 3.35-4.73 6.29-4.22 2.98 0.52 4.97 3.27 4.47 6.11l-0.57 3.21 1.33 0.24L15.05 10.19C15.69 6.59 13.19 3.15 9.49 2.5 5.81 1.85 2.25 4.28 1.62 7.82l-0.56 3.21 1.33 0.23z"></path>
            <path d="M4.34 14.16l-1.76-0.3L3.47 8.82l1.76 0.31c0.5 2.5-0.89 5.03-0.89 5.03m6.85-3.98L12.94 10.49 12.05 15.52l-1.75-0.3c-0.49-2.5 0.89-5.04 0.88-5.04"></path>
        </g>
        <g id="SvgjsG3372">
            <path d="M12.01 5.2L10.11 4.87l1.63-0.35a0.32 0.32 0 0 0-0.13-0.63l-1.84 0.39 1.65-1.15a0.33 0.33 0 0 0 0.13-0.21 0.32 0.32 0 0 0-0.5-0.32l-2.32 1.61 0.5-2.78a0.32 0.32 0 0 0-0.26-0.37L8.97 1.06c-0.18-0.03-0.34 0.08-0.37 0.26l-0.5 2.78c-0.52-0.75-1.45-2.1-1.46-2.1a0.33 0.33 0 0 0-0.45-0.08 0.33 0.33 0 0 0-0.08 0.46l1.01 1.46-1.64-1.03a0.32 0.32 0 1 0-0.34 0.55l1.42 0.88L4.72 3.92a0.48 0.48 0 0 0-0.56 0.39l-1.79 10.16c-0.05 0.26 0.13 0.51 0.4 0.55l7.28 1.29c0.26 0.05 0.51-0.13 0.56-0.39l1.79-10.16c0.05-0.26-0.13-0.51-0.39-0.56z m-1.23 4.16L7.92 8.86l0.58-3.29 2.86 0.5-0.58 3.29z m-3.49-0.61l-2.84-0.5 0.58-3.29 2.84 0.5-0.58 3.29z m-2.95 0.14l2.83 0.5-0.92 5.26-2.84-0.5L4.34 8.89z m3.47 0.61l2.86 0.5-0.93 5.27L6.88 14.76 7.81 9.5z" fill-rule="evenodd"></path>
        </g>
        <g id="SvgjsG3376">
            <path d="M-0.6 10.67L8.76 3.68l6.41 9.77z"></path>
            <path d="M2.19 5.5L9.39 0.12l4.93 7.52z m4.6 1.32l2.75 0.48-1.55 8.82L5.24 15.64z"></path>
        </g>
        <g id="SvgjsG3375">
            <path d="M9.04 2.11C4.92 1.39 1.13 3.32 0.58 6.42c-0.27 1.52 0.29 3.04 1.42 4.28l-0.6 3.38 4.22-1.08c0.46 0.15 0.94 0.28 1.44 0.36 4.12 0.73 7.91-1.2 8.45-4.31 0.55-3.11-2.35-6.21-6.47-6.94zM4.7 8.36a1.07 1.07 0 1 1 0.37-2.1 1.07 1.07 0 0 1-0.37 2.1z m3.13 0.56a1.07 1.07 0 1 1 0.37-2.1 1.07 1.07 0 0 1-0.37 2.1z m3.1 0.54c-0.58-0.1-0.97-0.66-0.87-1.23s0.66-0.97 1.24-0.87 0.97 0.66 0.87 1.24a1.07 1.07 0 0 1-1.24 0.86z"></path>
        </g>
        <g id="SvgjsG3378">
            <path d="M15.81 9.24C14.54 6.3 11.91 4.22 8.77 3.67 5.62 3.11 2.44 4.17 0.23 6.49L0.12 6.61l0.07 0.15c1.27 2.94 3.91 5.02 7.05 5.58 3.14 0.55 6.33-0.5 8.52-2.83l0.12-0.12-0.07-0.15z m-14.74-2.46c1.59-1.55 3.68-2.41 5.86-2.46a3.83 3.83 0 0 0-1.09 0.53c-0.84 0.59-1.4 1.47-1.58 2.48a3.82 3.82 0 0 0 0.64 2.88 3.86 3.86 0 0 0 0.89 0.9C3.74 10.33 2.05 8.8 1.07 6.78z m6.56 3.57c-1.29-0.23-2.15-1.46-1.93-2.76 0.11-0.62 0.46-1.17 0.98-1.53a2.36 2.36 0 0 1 1.77-0.39c0.62 0.11 1.17 0.46 1.54 0.97a2.36 2.36 0 0 1 0.39 1.78c-0.11 0.62-0.46 1.17-0.98 1.53a2.36 2.36 0 0 1-1.77 0.39z m1.53 1.33a3.84 3.84 0 0 0 1.09-0.53 3.82 3.82 0 0 0 1.58-2.48c0.26-1.45-0.34-2.86-1.43-3.71C12.37 5.76 13.98 7.27 14.93 9.22c-1.57 1.53-3.62 2.39-5.77 2.46z"></path>
            <path d="M7.21 8c0.43 0.08 0.83-0.21 0.9-0.64s-0.21-0.83-0.63-0.91a0.78 0.78 0 0 0-0.91 0.64A0.78 0.78 0 0 0 7.2 7.99"></path>
        </g>
        <g id="SvgjsG3379">
            <path d="M6.05 4.89L9.4 0.12l1.52 5.62 5.3 1.8-4.65 3.34-0.08 5.87L7.09 13.2 1.74 15.04l1.94-5.55L0.45 4.76z"></path>
        </g>
        <g id="SvgjsG3380">
            <use xlink:href="#SvgjsG3372" transform="translate(0, 0) scale(1.1)" fill="rgba(224, 224, 224, 1)"></use>
            <use xlink:href="#SvgjsG3373" transform="translate(0, 49.50000000000001) scale(1.1)" fill="rgba(224, 224, 224, 1)"></use>
            <use xlink:href="#SvgjsG3374" transform="translate(0, 99.00000000000001) scale(1.1)" fill="rgba(224, 224, 224, 1)"></use>
            <use xlink:href="#SvgjsG3375" transform="translate(0, 148.50000000000003) scale(1.1)" fill="rgba(224, 224, 224, 1)"></use>
            <use xlink:href="#SvgjsG3375" transform="translate(0, 198.00000000000003) scale(1.1)" fill="rgba(224, 224, 224, 1)"></use>
            <use xlink:href="#SvgjsG3376" transform="translate(0, 247.50000000000003) scale(1.1)" fill="rgba(224, 224, 224, 1)"></use>
            <use xlink:href="#SvgjsG3372" transform="translate(0, 297.00000000000006) scale(1.1)" fill="rgba(224, 224, 224, 1)"></use>
            <use xlink:href="#SvgjsG3373" transform="translate(0, 346.50000000000006) scale(1.1)" fill="rgba(224, 224, 224, 1)"></use>
            <use xlink:href="#SvgjsG3375" transform="translate(0, 396.00000000000006) scale(1.1)" fill="rgba(224, 224, 224, 1)"></use>
            <use xlink:href="#SvgjsG3375" transform="translate(0, 445.50000000000006) scale(1.1)" fill="rgba(224, 224, 224, 1)"></use>
            <use xlink:href="#SvgjsG3377" transform="translate(49.50000000000001, 0) scale(1.1)" fill="rgba(224, 224, 224, 1)"></use>
            <use xlink:href="#SvgjsG3376" transform="translate(49.50000000000001, 49.50000000000001) scale(1.1)" fill="rgba(224, 224, 224, 1)"></use>
            <use xlink:href="#SvgjsG3375" transform="translate(49.50000000000001, 99.00000000000001) scale(1.1)" fill="rgba(224, 224, 224, 1)"></use>
            <use xlink:href="#SvgjsG3374" transform="translate(49.50000000000001, 148.50000000000003) scale(1.1)" fill="rgba(224, 224, 224, 1)"></use>
            <use xlink:href="#SvgjsG3372" transform="translate(49.50000000000001, 198.00000000000003) scale(1.1)" fill="rgba(224, 224, 224, 1)"></use>
            <use xlink:href="#SvgjsG3377" transform="translate(49.50000000000001, 247.50000000000003) scale(1.1)" fill="rgba(224, 224, 224, 1)"></use>
            <use xlink:href="#SvgjsG3376" transform="translate(49.50000000000001, 297.00000000000006) scale(1.1)" fill="rgba(224, 224, 224, 1)"></use>
            <use xlink:href="#SvgjsG3378" transform="translate(49.50000000000001, 346.50000000000006) scale(1.1)" fill="rgba(224, 224, 224, 1)"></use>
            <use xlink:href="#SvgjsG3375" transform="translate(49.50000000000001, 396.00000000000006) scale(1.1)" fill="rgba(224, 224, 224, 1)"></use>
            <use xlink:href="#SvgjsG3375" transform="translate(49.50000000000001, 445.50000000000006) scale(1.1)" fill="rgba(224, 224, 224, 1)"></use>
            <use xlink:href="#SvgjsG3372" transform="translate(99.00000000000001, 0) scale(1.1)" fill="rgba(224, 224, 224, 1)"></use>
            <use xlink:href="#SvgjsG3379" transform="translate(99.00000000000001, 49.50000000000001) scale(1.1)" fill="rgba(224, 224, 224, 1)"></use>
            <use xlink:href="#SvgjsG3378" transform="translate(99.00000000000001, 99.00000000000001) scale(1.1)" fill="rgba(224, 224, 224, 1)"></use>
            <use xlink:href="#SvgjsG3379" transform="translate(99.00000000000001, 148.50000000000003) scale(1.1)" fill="rgba(224, 224, 224, 1)"></use>
            <use xlink:href="#SvgjsG3374" transform="translate(99.00000000000001, 198.00000000000003) scale(1.1)" fill="rgba(224, 224, 224, 1)"></use>
            <use xlink:href="#SvgjsG3377" transform="translate(99.00000000000001, 247.50000000000003) scale(1.1)" fill="rgba(224, 224, 224, 1)"></use>
            <use xlink:href="#SvgjsG3373" transform="translate(99.00000000000001, 297.00000000000006) scale(1.1)" fill="rgba(224, 224, 224, 1)"></use>
            <use xlink:href="#SvgjsG3373" transform="translate(99.00000000000001, 346.50000000000006) scale(1.1)" fill="rgba(224, 224, 224, 1)"></use>
            <use xlink:href="#SvgjsG3379" transform="translate(99.00000000000001, 396.00000000000006) scale(1.1)" fill="rgba(224, 224, 224, 1)"></use>
            <use xlink:href="#SvgjsG3376" transform="translate(99.00000000000001, 445.50000000000006) scale(1.1)" fill="rgba(224, 224, 224, 1)"></use>
            <use xlink:href="#SvgjsG3372" transform="translate(148.50000000000003, 0) scale(1.1)" fill="rgba(224, 224, 224, 1)"></use>
            <use xlink:href="#SvgjsG3372" transform="translate(148.50000000000003, 49.50000000000001) scale(1.1)" fill="rgba(224, 224, 224, 1)"></use>
            <use xlink:href="#SvgjsG3379" transform="translate(148.50000000000003, 99.00000000000001) scale(1.1)" fill="rgba(224, 224, 224, 1)"></use>
            <use xlink:href="#SvgjsG3373" transform="translate(148.50000000000003, 148.50000000000003) scale(1.1)" fill="rgba(224, 224, 224, 1)"></use>
            <use xlink:href="#SvgjsG3377" transform="translate(148.50000000000003, 198.00000000000003) scale(1.1)" fill="rgba(224, 224, 224, 1)"></use>
            <use xlink:href="#SvgjsG3377" transform="translate(148.50000000000003, 247.50000000000003) scale(1.1)" fill="rgba(224, 224, 224, 1)"></use>
            <use xlink:href="#SvgjsG3374" transform="translate(148.50000000000003, 297.00000000000006) scale(1.1)" fill="rgba(224, 224, 224, 1)"></use>
            <use xlink:href="#SvgjsG3378" transform="translate(148.50000000000003, 346.50000000000006) scale(1.1)" fill="rgba(224, 224, 224, 1)"></use>
            <use xlink:href="#SvgjsG3374" transform="translate(148.50000000000003, 396.00000000000006) scale(1.1)" fill="rgba(224, 224, 224, 1)"></use>
            <use xlink:href="#SvgjsG3379" transform="translate(148.50000000000003, 445.50000000000006) scale(1.1)" fill="rgba(224, 224, 224, 1)"></use>
            <use xlink:href="#SvgjsG3378" transform="translate(198.00000000000003, 0) scale(1.1)" fill="rgba(224, 224, 224, 1)"></use>
            <use xlink:href="#SvgjsG3374" transform="translate(198.00000000000003, 49.50000000000001) scale(1.1)" fill="rgba(224, 224, 224, 1)"></use>
            <use xlink:href="#SvgjsG3377" transform="translate(198.00000000000003, 99.00000000000001) scale(1.1)" fill="rgba(224, 224, 224, 1)"></use>
            <use xlink:href="#SvgjsG3377" transform="translate(198.00000000000003, 148.50000000000003) scale(1.1)" fill="rgba(224, 224, 224, 1)"></use>
            <use xlink:href="#SvgjsG3377" transform="translate(198.00000000000003, 198.00000000000003) scale(1.1)" fill="rgba(224, 224, 224, 1)"></use>
            <use xlink:href="#SvgjsG3378" transform="translate(198.00000000000003, 247.50000000000003) scale(1.1)" fill="rgba(224, 224, 224, 1)"></use>
            <use xlink:href="#SvgjsG3377" transform="translate(198.00000000000003, 297.00000000000006) scale(1.1)" fill="rgba(224, 224, 224, 1)"></use>
            <use xlink:href="#SvgjsG3375" transform="translate(198.00000000000003, 346.50000000000006) scale(1.1)" fill="rgba(224, 224, 224, 1)"></use>
            <use xlink:href="#SvgjsG3379" transform="translate(198.00000000000003, 396.00000000000006) scale(1.1)" fill="rgba(224, 224, 224, 1)"></use>
            <use xlink:href="#SvgjsG3375" transform="translate(198.00000000000003, 445.50000000000006) scale(1.1)" fill="rgba(224, 224, 224, 1)"></use>
            <use xlink:href="#SvgjsG3372" transform="translate(247.50000000000003, 0) scale(1.1)" fill="rgba(224, 224, 224, 1)"></use>
            <use xlink:href="#SvgjsG3378" transform="translate(247.50000000000003, 49.50000000000001) scale(1.1)" fill="rgba(224, 224, 224, 1)"></use>
            <use xlink:href="#SvgjsG3375" transform="translate(247.50000000000003, 99.00000000000001) scale(1.1)" fill="rgba(224, 224, 224, 1)"></use>
            <use xlink:href="#SvgjsG3378" transform="translate(247.50000000000003, 148.50000000000003) scale(1.1)" fill="rgba(224, 224, 224, 1)"></use>
            <use xlink:href="#SvgjsG3374" transform="translate(247.50000000000003, 198.00000000000003) scale(1.1)" fill="rgba(224, 224, 224, 1)"></use>
            <use xlink:href="#SvgjsG3372" transform="translate(247.50000000000003, 247.50000000000003) scale(1.1)" fill="rgba(224, 224, 224, 1)"></use>
            <use xlink:href="#SvgjsG3373" transform="translate(247.50000000000003, 297.00000000000006) scale(1.1)" fill="rgba(224, 224, 224, 1)"></use>
            <use xlink:href="#SvgjsG3376" transform="translate(247.50000000000003, 346.50000000000006) scale(1.1)" fill="rgba(224, 224, 224, 1)"></use>
            <use xlink:href="#SvgjsG3374" transform="translate(247.50000000000003, 396.00000000000006) scale(1.1)" fill="rgba(224, 224, 224, 1)"></use>
            <use xlink:href="#SvgjsG3372" transform="translate(247.50000000000003, 445.50000000000006) scale(1.1)" fill="rgba(224, 224, 224, 1)"></use>
            <use xlink:href="#SvgjsG3379" transform="translate(297.00000000000006, 0) scale(1.1)" fill="rgba(224, 224, 224, 1)"></use>
            <use xlink:href="#SvgjsG3378" transform="translate(297.00000000000006, 49.50000000000001) scale(1.1)" fill="rgba(224, 224, 224, 1)"></use>
            <use xlink:href="#SvgjsG3378" transform="translate(297.00000000000006, 99.00000000000001) scale(1.1)" fill="rgba(224, 224, 224, 1)"></use>
            <use xlink:href="#SvgjsG3373" transform="translate(297.00000000000006, 148.50000000000003) scale(1.1)" fill="rgba(224, 224, 224, 1)"></use>
            <use xlink:href="#SvgjsG3376" transform="translate(297.00000000000006, 198.00000000000003) scale(1.1)" fill="rgba(224, 224, 224, 1)"></use>
            <use xlink:href="#SvgjsG3379" transform="translate(297.00000000000006, 247.50000000000003) scale(1.1)" fill="rgba(224, 224, 224, 1)"></use>
            <use xlink:href="#SvgjsG3377" transform="translate(297.00000000000006, 297.00000000000006) scale(1.1)" fill="rgba(224, 224, 224, 1)"></use>
            <use xlink:href="#SvgjsG3372" transform="translate(297.00000000000006, 346.50000000000006) scale(1.1)" fill="rgba(224, 224, 224, 1)"></use>
            <use xlink:href="#SvgjsG3379" transform="translate(297.00000000000006, 396.00000000000006) scale(1.1)" fill="rgba(224, 224, 224, 1)"></use>
            <use xlink:href="#SvgjsG3379" transform="translate(297.00000000000006, 445.50000000000006) scale(1.1)" fill="rgba(224, 224, 224, 1)"></use>
            <use xlink:href="#SvgjsG3375" transform="translate(346.50000000000006, 0) scale(1.1)" fill="rgba(224, 224, 224, 1)"></use>
            <use xlink:href="#SvgjsG3379" transform="translate(346.50000000000006, 49.50000000000001) scale(1.1)" fill="rgba(224, 224, 224, 1)"></use>
            <use xlink:href="#SvgjsG3379" transform="translate(346.50000000000006, 99.00000000000001) scale(1.1)" fill="rgba(224, 224, 224, 1)"></use>
            <use xlink:href="#SvgjsG3378" transform="translate(346.50000000000006, 148.50000000000003) scale(1.1)" fill="rgba(224, 224, 224, 1)"></use>
            <use xlink:href="#SvgjsG3378" transform="translate(346.50000000000006, 198.00000000000003) scale(1.1)" fill="rgba(224, 224, 224, 1)"></use>
            <use xlink:href="#SvgjsG3374" transform="translate(346.50000000000006, 247.50000000000003) scale(1.1)" fill="rgba(224, 224, 224, 1)"></use>
            <use xlink:href="#SvgjsG3378" transform="translate(346.50000000000006, 297.00000000000006) scale(1.1)" fill="rgba(224, 224, 224, 1)"></use>
            <use xlink:href="#SvgjsG3377" transform="translate(346.50000000000006, 346.50000000000006) scale(1.1)" fill="rgba(224, 224, 224, 1)"></use>
            <use xlink:href="#SvgjsG3374" transform="translate(346.50000000000006, 396.00000000000006) scale(1.1)" fill="rgba(224, 224, 224, 1)"></use>
            <use xlink:href="#SvgjsG3372" transform="translate(346.50000000000006, 445.50000000000006) scale(1.1)" fill="rgba(224, 224, 224, 1)"></use>
            <use xlink:href="#SvgjsG3377" transform="translate(396.00000000000006, 0) scale(1.1)" fill="rgba(224, 224, 224, 1)"></use>
            <use xlink:href="#SvgjsG3372" transform="translate(396.00000000000006, 49.50000000000001) scale(1.1)" fill="rgba(224, 224, 224, 1)"></use>
            <use xlink:href="#SvgjsG3377" transform="translate(396.00000000000006, 99.00000000000001) scale(1.1)" fill="rgba(224, 224, 224, 1)"></use>
            <use xlink:href="#SvgjsG3378" transform="translate(396.00000000000006, 148.50000000000003) scale(1.1)" fill="rgba(224, 224, 224, 1)"></use>
            <use xlink:href="#SvgjsG3373" transform="translate(396.00000000000006, 198.00000000000003) scale(1.1)" fill="rgba(224, 224, 224, 1)"></use>
            <use xlink:href="#SvgjsG3372" transform="translate(396.00000000000006, 247.50000000000003) scale(1.1)" fill="rgba(224, 224, 224, 1)"></use>
            <use xlink:href="#SvgjsG3374" transform="translate(396.00000000000006, 297.00000000000006) scale(1.1)" fill="rgba(224, 224, 224, 1)"></use>
            <use xlink:href="#SvgjsG3374" transform="translate(396.00000000000006, 346.50000000000006) scale(1.1)" fill="rgba(224, 224, 224, 1)"></use>
            <use xlink:href="#SvgjsG3372" transform="translate(396.00000000000006, 396.00000000000006) scale(1.1)" fill="rgba(224, 224, 224, 1)"></use>
            <use xlink:href="#SvgjsG3376" transform="translate(396.00000000000006, 445.50000000000006) scale(1.1)" fill="rgba(224, 224, 224, 1)"></use>
            <use xlink:href="#SvgjsG3375" transform="translate(445.50000000000006, 0) scale(1.1)" fill="rgba(224, 224, 224, 1)"></use>
            <use xlink:href="#SvgjsG3376" transform="translate(445.50000000000006, 49.50000000000001) scale(1.1)" fill="rgba(224, 224, 224, 1)"></use>
            <use xlink:href="#SvgjsG3376" transform="translate(445.50000000000006, 99.00000000000001) scale(1.1)" fill="rgba(224, 224, 224, 1)"></use>
            <use xlink:href="#SvgjsG3375" transform="translate(445.50000000000006, 148.50000000000003) scale(1.1)" fill="rgba(224, 224, 224, 1)"></use>
            <use xlink:href="#SvgjsG3376" transform="translate(445.50000000000006, 198.00000000000003) scale(1.1)" fill="rgba(224, 224, 224, 1)"></use>
            <use xlink:href="#SvgjsG3379" transform="translate(445.50000000000006, 247.50000000000003) scale(1.1)" fill="rgba(224, 224, 224, 1)"></use>
            <use xlink:href="#SvgjsG3379" transform="translate(445.50000000000006, 297.00000000000006) scale(1.1)" fill="rgba(224, 224, 224, 1)"></use>
            <use xlink:href="#SvgjsG3375" transform="translate(445.50000000000006, 346.50000000000006) scale(1.1)" fill="rgba(224, 224, 224, 1)"></use>
            <use xlink:href="#SvgjsG3374" transform="translate(445.50000000000006, 396.00000000000006) scale(1.1)" fill="rgba(224, 224, 224, 1)"></use>
            <use xlink:href="#SvgjsG3374" transform="translate(445.50000000000006, 445.50000000000006) scale(1.1)" fill="rgba(224, 224, 224, 1)"></use>
        </g>
    </defs>
</svg>